<svg width="24" height="25" viewBox="0 0 24 25" fill="none" xmlns="http://www.w3.org/2000/svg">
<path d="M3 6.10657H5H21" stroke="#E62E4D" stroke-width="2" stroke-linecap="round" stroke-linejoin="round"/>
<path d="M8 6.10657V4.10657C8 3.57613 8.21071 3.06743 8.58579 2.69235C8.96086 2.31728 9.46957 2.10657 10 2.10657H14C14.5304 2.10657 15.0391 2.31728 15.4142 2.69235C15.7893 3.06743 16 3.57613 16 4.10657V6.10657M19 6.10657V20.1066C19 20.637 18.7893 21.1457 18.4142 21.5208C18.0391 21.8959 17.5304 22.1066 17 22.1066H7C6.46957 22.1066 5.96086 21.8959 5.58579 21.5208C5.21071 21.1457 5 20.637 5 20.1066V6.10657H19Z" stroke="#E62E4D" stroke-width="2" stroke-linecap="round" stroke-linejoin="round"/>
<path d="M10 11.1066V17.1066" stroke="#E62E4D" stroke-width="2" stroke-linecap="round" stroke-linejoin="round"/>
<path d="M14 11.1066V17.1066" stroke="#E62E4D" stroke-width="2" stroke-linecap="round" stroke-linejoin="round"/>
</svg>
